<svg xmlns="http://www.w3.org/2000/svg" viewBox="0 0 954.45 952.36">
  <path d="M19.71,66.58c-1-8.67,3-19,15-20,16.8-1.4,18.16,18.87,22,24,3,4,6.22,3.78,10,3,9.67-2,5.63-31.58,18.42-36.75,3.61-1.46,8.81-.17,16.58,5.75,21,16-2.12,48.82-23.48,56.63C47.6,110.42,21.71,84.58,19.71,66.58Z" transform="translate(-18.07 -34.78)" style="fill: none;stroke: #000;stroke-miterlimit: 10;stroke-width: 3px"/>
  <path d="M182.7,219.94c-6.4,23.75-28.33-7.37-48-24.36,3,24.67-14.64,44.54-30,29-15-15.13,2.79-55.93,31.77-55.09C175.68,170.62,187.69,201.43,182.7,219.94Z" transform="translate(-18.07 -34.78)" style="fill: none;stroke: #000;stroke-miterlimit: 10;stroke-width: 3px"/>
  <path d="M312.06,50.6c16.65-10,25.16,27.29,14.59,46.82,22.06-9.53,35.73,7.9,32.06,23.16-3.33,13.81-34.69,25.84-51,10C284.31,107.85,299.66,58.06,312.06,50.6Z" transform="translate(-18.07 -34.78)" style="fill: none;stroke: #000;stroke-miterlimit: 10;stroke-width: 3px"/>
  <path d="M539.71,110.58c-15-1-20.24,3.19-23,5-12.52,8.16-10,52.24,5,50,40-6,6.29-19.21,14-27,7.25-7.34,31-1,31-13C566.71,116.63,555.31,111.62,539.71,110.58Z" transform="translate(-18.07 -34.78)" style="fill: none;stroke: #000;stroke-miterlimit: 10;stroke-width: 3px"/>
  <path d="M691.71,41.58c-4,2-7,5.94-9,10-7.49,15.43-5,39.67,7,44,8,2.89,21.33-2.68,24-12C719.71,62.62,700,37.41,691.71,41.58Z" transform="translate(-18.07 -34.78)" style="fill: none;stroke: #000;stroke-miterlimit: 10;stroke-width: 3px"/>
  <path d="M738.22,250c-6.41,23.75-28.33-7.37-48-24.36,3,24.67-14.63,44.54-30,29-15-15.13,2.8-55.92,31.78-55.09C731.19,200.7,743.2,231.51,738.22,250Z" transform="translate(-18.07 -34.78)" style="fill: none;stroke: #000;stroke-miterlimit: 10;stroke-width: 3px"/>
  <path d="M908.72,206.13c-32.08,3.38-4.37-38.13,7.13-70.21-28.77,15.31-61.4,3.13-49.64-23,11.44-25.44,69.72-23,82.38,12.85C965.72,174.25,933.71,203.49,908.72,206.13Z" transform="translate(-18.07 -34.78)" style="fill: none;stroke: #000;stroke-miterlimit: 10;stroke-width: 3px"/>
  <path d="M431.23,257.4c8.67-3.7,23.29-13.58,22.23-25.95-1.19-13.82-21.48-25.11-37.7-21-19.54,4.88-30.52,31.36-22.66,43.25C399.67,263.57,418.94,262.65,431.23,257.4Z" transform="translate(-18.07 -34.78)" style="fill: none;stroke: #000;stroke-miterlimit: 10;stroke-width: 3px"/>
  <path d="M957.29,525c.91,8.68-3.12,19-15.12,19.91-16.82,1.3-18-19-21.86-24.13-3-4-6.2-3.82-10-3.06-9.69,2-5.83,31.54-18.64,36.64-3.62,1.44-8.81.12-16.55-5.85-20.9-16.12,2.41-48.81,23.82-56.49C929.66,481,955.39,507,957.29,525Z" transform="translate(-18.07 -34.78)" style="fill: none;stroke: #000;stroke-miterlimit: 10;stroke-width: 3px"/>
  <path d="M806,367.58c6.54-23.71,28.28,7.54,47.84,24.64-2.84-24.69,14.9-44.45,30.18-28.82,14.86,15.22-3.13,55.91-32.11,54.9C812.75,416.93,800.93,386.06,806,367.58Z" transform="translate(-18.07 -34.78)" style="fill: none;stroke: #000;stroke-miterlimit: 10;stroke-width: 3px"/>
  <path d="M664.85,539.26c-16.71,9.92-25-27.44-14.32-46.91-22.11,9.39-35.68-8.11-31.92-23.35,3.42-13.8,34.84-25.64,51.06-9.7C692.93,482.17,677.28,531.87,664.85,539.26Z" transform="translate(-18.07 -34.78)" style="fill: none;stroke: #000;stroke-miterlimit: 10;stroke-width: 3px"/>
  <path d="M437.56,477.92c15,1.09,20.25-3.08,23-4.86,12.56-8.09,10.28-52.19-4.7-50-40,5.76-6.41,19.17-14.17,26.91-7.29,7.3-31,.82-31.07,12.82C410.59,471.7,422,476.79,437.56,477.92Z" transform="translate(-18.07 -34.78)" style="fill: none;stroke: #000;stroke-miterlimit: 10;stroke-width: 3px"/>
  <path d="M285.15,546c4-2,7.06-5.89,9.06-9.94,7.57-15.39,5.25-39.65-6.74-44.05-8-2.93-21.35,2.56-24.07,11.86C257.28,524.81,276.88,550.13,285.15,546Z" transform="translate(-18.07 -34.78)" style="fill: none;stroke: #000;stroke-miterlimit: 10;stroke-width: 3px"/>
  <path d="M239.88,337.3c6.55-23.71,28.29,7.53,47.85,24.64-2.85-24.69,14.9-44.45,30.17-28.82,14.87,15.22-3.12,55.91-32.1,54.9C246.61,386.65,234.79,355.77,239.88,337.3Z" transform="translate(-18.07 -34.78)" style="fill: none;stroke: #000;stroke-miterlimit: 10;stroke-width: 3px"/>
  <path d="M69.13,380.17c32.09-3.19,4.13,38.16-7.55,70.17,28.86-15.15,61.41-2.77,49.5,23.29C99.49,499,41.22,496.21,28.77,460.29,11.93,411.71,44.12,382.66,69.13,380.17Z" transform="translate(-18.07 -34.78)" style="fill: none;stroke: #000;stroke-miterlimit: 10;stroke-width: 3px"/>
  <path d="M546.91,331.75c-8.69,3.65-23.37,13.44-22.38,25.81,1.1,13.83,21.32,25.24,37.57,21.28,19.56-4.77,30.71-31.18,22.91-43.11C578.5,325.76,559.23,326.57,546.91,331.75Z" transform="translate(-18.07 -34.78)" style="fill: none;stroke: #000;stroke-miterlimit: 10;stroke-width: 3px"/>
  <path d="M32.21,909.85c-1-8.67,3-19,15-20,16.8-1.4,18.16,18.88,22,24,3,4,6.22,3.78,10,3,9.67-2,5.63-31.58,18.42-36.75,3.61-1.46,8.81-.17,16.58,5.75,21,16-2.12,48.82-23.48,56.63C60.1,953.69,34.21,927.85,32.21,909.85Z" transform="translate(-18.07 -34.78)" style="fill: none;stroke: #000;stroke-miterlimit: 10;stroke-width: 3px"/>
  <path d="M888.2,900.21c-6.4,23.75-28.33-7.37-48-24.36,3,24.67-14.64,44.54-30,29-15-15.13,2.79-55.93,31.77-55.09C881.18,850.89,893.19,881.7,888.2,900.21Z" transform="translate(-18.07 -34.78)" style="fill: none;stroke: #000;stroke-miterlimit: 10;stroke-width: 3px"/>
  <path d="M105.56,617.87c16.65-10,25.16,27.29,14.59,46.82,22.06-9.53,35.73,7.9,32.06,23.16-3.33,13.82-34.69,25.84-51,10C77.81,675.12,93.16,625.33,105.56,617.87Z" transform="translate(-18.07 -34.78)" style="fill: none;stroke: #000;stroke-miterlimit: 10;stroke-width: 3px"/>
  <path d="M333.21,677.85c-15-1-20.24,3.19-23,5-12.52,8.16-10,52.24,5,50,40-6,6.29-19.21,14-27,7.25-7.34,31-1,31-13C360.21,683.9,348.81,678.89,333.21,677.85Z" transform="translate(-18.07 -34.78)" style="fill: none;stroke: #000;stroke-miterlimit: 10;stroke-width: 3px"/>
  <path d="M485.21,608.85c-4,2-7,5.94-9,10-7.49,15.43-5,39.67,7,44,8,2.89,21.33-2.68,24-12C513.21,629.89,493.45,604.68,485.21,608.85Z" transform="translate(-18.07 -34.78)" style="fill: none;stroke: #000;stroke-miterlimit: 10;stroke-width: 3px"/>
  <path d="M531.72,817.29c-6.41,23.75-28.33-7.37-48-24.36,3,24.68-14.63,44.54-30,29-15-15.13,2.8-55.92,31.78-55.09C524.69,768,536.7,798.78,531.72,817.29Z" transform="translate(-18.07 -34.78)" style="fill: none;stroke: #000;stroke-miterlimit: 10;stroke-width: 3px"/>
  <path d="M702.22,773.4c-32.08,3.38-4.37-38.13,7.13-70.21-28.77,15.31-61.4,3.13-49.64-23,11.44-25.44,69.72-23,82.38,12.85C759.22,741.52,727.21,770.76,702.22,773.4Z" transform="translate(-18.07 -34.78)" style="fill: none;stroke: #000;stroke-miterlimit: 10;stroke-width: 3px"/>
  <path d="M224.73,824.67C233.4,821,248,811.09,247,798.72c-1.19-13.82-21.48-25.1-37.7-21.05-19.54,4.88-30.52,31.36-22.66,43.25C193.17,830.84,212.44,829.92,224.73,824.67Z" transform="translate(-18.07 -34.78)" style="fill: none;stroke: #000;stroke-miterlimit: 10;stroke-width: 3px"/>
  <path d="M948.74,726c8.67-3.71,23.29-13.58,22.23-26-1.19-13.82-21.48-25.11-37.7-21.06-19.54,4.89-30.52,31.37-22.66,43.25C917.18,732.16,936.45,731.23,948.74,726Z" transform="translate(-18.07 -34.78)" style="fill: none;stroke: #000;stroke-miterlimit: 10;stroke-width: 3px"/>
  <path d="M616,972.23c15,1.09,20.26-3.08,23-4.86,12.57-8.09,10.28-52.19-4.7-50-40,5.76-6.41,19.17-14.16,26.91-7.3,7.3-31,.82-31.08,12.82C589.08,966,600.45,971.1,616,972.23Z" transform="translate(-18.07 -34.78)" style="fill: none;stroke: #000;stroke-miterlimit: 10;stroke-width: 3px"/>
  <path d="M348.26,901.2c18.85,4.73-1.59,37.09-22.88,43.38,22.31,8.91,19.61,30.89,6.2,39-12.14,7.39-42.79-6.34-43.07-29.08C288.11,921.94,334.23,897.68,348.26,901.2Z" transform="translate(-18.07 -34.78)" style="fill: none;stroke: #000;stroke-miterlimit: 10;stroke-width: 3px"/>
</svg>
