<?xml version="1.0" encoding="UTF-8"?>
<svg id="Layer_1" data-name="Layer 1" xmlns="http://www.w3.org/2000/svg" viewBox="0 0 689.364815 1044.206331">
  <polygon points="523.781755 171.093997 518.021505 165.990348 648.394076 0 679.707022 9.754738 523.781755 171.093997" style="fill: #ef476f; stroke-width: 0px;"/>
  <polygon points="569.612337 239.381249 567.810145 231.899537 689.364815 188.466266 682.45236 220.726351 569.612337 239.381249" style="fill: #ef476f; stroke-width: 0px;"/>
  <polygon points="451.147405 126.477818 443.675687 124.636799 465.976704 22.867627 492.384062 28.961834 451.147405 126.477818" style="fill: #ef476f; stroke-width: 0px;"/>
  <polygon points="31.442366 1044.206331 9.203997 1006.566739 141.551033 892.424651 147.054279 897.693458 31.442366 1044.206331" style="fill: #ef476f; stroke-width: 0px;"/>
  <polygon points="213.161815 1039.607297 183.238455 1043.02733 196.593773 925.125961 204.209261 925.345178 213.161815 1039.607297" style="fill: #ef476f; stroke-width: 0px;"/>
  <polygon points="10.669141 847.624782 0 822.563122 105.70077 818.547184 106.968876 826.059914 10.669141 847.624782" style="fill: #ef476f; stroke-width: 0px;"/>
</svg>