<?xml version="1.0" encoding="UTF-8"?><svg id="a" xmlns="http://www.w3.org/2000/svg" viewBox="0 0 200 200"><path d="m195.394647,101.072412L107.471974,13.14974c-4.126698-4.126635-10.817294-4.126635-14.943992,0L4.60531,101.072475c-6.656777,6.65684-1.942179,18.038984,7.472027,18.038984h18.169663v58.346934c0,6.868194,5.567761,12.436018,12.436018,12.436018h114.633982c6.868257,0,12.436018-5.567824,12.436018-12.436018v-58.346996h18.169663c9.414207,0,14.128804-11.382144,7.471964-18.038984Zm-79.45534,54.187865c-36.244356,13.196982-66.805827-17.301322-69.205289-38.580651-1.136564-10.229268,3.53609-22.415956,17.743365-23.615688,19.827056-1.641711,21.468767,22.289686,26.015087,28.351446,3.536027,4.735758,7.324659,4.483154,11.807812,3.536027,11.429-2.399463,6.693241-37.317816,21.784539-43.379577,4.293716-1.704878,10.418643-.189438,19.574451,6.819512,24.815356,18.879866-2.525734,57.649956-27.719965,66.868931Z" style="fill:#170f1a;"/></svg>