<?xml version="1.0" encoding="UTF-8"?>
<svg id="Layer_1" data-name="Layer 1" xmlns="http://www.w3.org/2000/svg" viewBox="0 0 512 512">
  <polygon points="205.406697 82.836448 129.946653 102.626873 52.881705 204.33196 138.797367 301.821458 157.593045 385.717498 352.111106 429.163552 459.118295 347.965109 457.556233 256.947658 367.824128 148.195768 276.016754 133.793269 205.406697 82.836448" style="fill: #fff; stroke-width: 0px;"/>
  <path d="m282.154297,280.859375c-5.782227,1.324219-11.536133,2.557617-17.255859,3.704102-5.723633,1.144531-11.536133,2.197266-17.4375,3.162109-7.227539-10.959961-14.365234-21.773438-21.412109-32.43457-7.046875-10.660645-14.365234-21.290527-21.954102-31.89209l-19.333984,18.791992-1.806641,40.11377c-2.772461-.121094-5.511719-.210938-8.22168-.270508-2.710938-.0625-5.392578-.09082-8.041016-.09082-2.529297,0-5,.05957-7.408203.180664-2.411133.119141-4.819336.361328-7.227539.722656-1.446289-11.081055-2.800781-22.134766-4.06543-33.156738-1.265625-11.022461-2.380859-22.135254-3.342773-33.337891-.96582-11.203125-1.716797-22.375-2.258789-33.518555-.541992-11.141113-1.056641-22.315918-1.536133-33.518555,9.03418.242676,17.978516.39209,26.833008.45166,8.853516.062012,17.797852.211914,26.833008.45166l-1.084961,41.920898c6.505859-6.745117,12.649414-13.611328,18.430664-20.599121,5.782227-6.984863,11.745117-14.094238,17.888672-21.321777,5.782227-.361328,11.624023-.750977,17.527344-1.174316,5.901367-.420898,11.745117-.872559,17.527344-1.355469l-.722656,13.371582-38.306641,39.933105c9.15332,13.61377,18.399414,26.985352,27.736328,40.11377,9.333984,13.131348,18.881836,26.381348,28.639648,39.752441Z" style="fill: #d81e5b; stroke-width: 0px;"/>
  <path d="m401.594727,228.410156c-2.529297,22.527344-5.663086,44.422852-9.395508,65.682617-3.735352,21.261719-8.130859,42.976562-13.19043,65.139648-1.327148.121094-2.710938.180664-4.15625.180664h-4.15625c-3.133789,0-6.233398-.05957-9.305664-.180664-3.071289-.119141-6.173828-.480469-9.305664-1.083984-3.856445-8.069336-7.890625-16.050781-12.106445-23.942383-4.217773-7.887695-8.193359-15.991211-11.925781-24.302734-1.6875,4.09668-3.584961,8.071289-5.691406,11.925781-2.109375,3.856445-4.368164,7.709961-6.776367,11.564453-3.133789,4.697266-6.143555,9.458008-9.03418,14.274414-2.891602,4.819336-5.722656,9.698242-8.492188,14.635742l-29.453125-.722656c-2.772461-10.841797-5.392578-21.561523-7.860352-32.163086-2.470703-10.598633-4.90918-21.321289-7.318359-32.163086-3.133789-13.490234-6.354492-26.833008-9.666992-40.024414-3.314453-13.19043-6.71582-26.471191-10.208984-39.842773h52.401367c.479492,3.975586.90332,7.950684,1.264648,11.925781.361328,3.975586.722656,7.891113,1.083984,11.745117.962891,10.480469,2.046875,20.870117,3.251953,31.169922,1.203125,10.299805,2.40918,20.689453,3.614258,31.169922,2.046875-7.34668,4.125-14.636719,6.234375-21.864258,2.105469-7.227539,4.426758-14.455078,6.956055-21.683594,2.168945-6.504883,4.274414-12.919434,6.324219-19.243652,2.046875-6.324219,4.035156-12.73877,5.962891-19.243652h8.854492c3.974609,14.57666,8.429688,28.882324,13.371094,42.915039,4.9375,14.03418,10.299805,28.038086,16.081055,42.010742,3.009766-13.12793,5.629883-26.319336,7.860352-39.571289,2.227539-13.250488,4.545898-26.500488,6.957031-39.75293l27.826172,1.445312Z" style="fill: #d81e5b; stroke-width: 0px;"/>
</svg>