<?xml version="1.0" encoding="UTF-8"?>
<svg id="Layer_1" data-name="Layer 1" xmlns="http://www.w3.org/2000/svg" viewBox="0 0 512 512">
  <polygon points="193.770702 43.102521 101.335348 67.344952 6.934055 191.929372 112.177097 311.349874 135.201006 414.118966 373.477384 467.33854 504.556653 367.87389 502.643193 256.381372 392.725169 123.164917 280.265028 105.522467 193.770702 43.102521" style="fill: #d81e5b; stroke-width: 0px;"/>
  <path d="m263.469727,285.817383c-6.154297,1.410156-12.279297,2.722656-18.367188,3.943359-6.091797,1.216797-12.279297,2.337891-18.55957,3.365234-7.693359-11.666016-15.290039-23.174805-22.791016-34.522461-7.5-11.347168-15.290039-22.661621-23.367188-33.945801l-20.579102,20.001953-1.923828,42.696777c-2.950195-.128906-5.865234-.225586-8.75-.289062-2.885742-.06543-5.740234-.095703-8.558594-.095703-2.693359,0-5.322266.063477-7.885742.192383-2.566406.125977-5.129883.384766-7.693359.769531-1.538086-11.794922-2.980469-23.560547-4.327148-35.29248s-2.533203-23.560059-3.557617-35.484375c-1.02832-11.923828-1.827148-23.81543-2.404297-35.67627-.577148-11.858398-1.124023-23.752441-1.634766-35.676758,9.616211.258301,19.136719.41748,28.560547.480957,9.423828.065918,18.944336.225098,28.560547.480469l-1.154297,44.620117c6.923828-7.179199,13.462891-14.487793,19.617188-21.925293,6.154297-7.43457,12.501953-15.001465,19.041016-22.694824,6.154297-.384277,12.37207-.799316,18.655273-1.25,6.280273-.447754,12.500977-.928711,18.655273-1.442383l-.768555,14.232422-40.773438,42.503906c9.742188,14.490723,19.583984,28.723145,29.522461,42.696777,9.93457,13.976562,20.097656,28.080078,30.483398,42.311523Z" style="fill: #fff; stroke-width: 0px;"/>
  <path d="m434.09375,221.425781c-3.099609,27.594727-6.938477,54.415039-11.509766,80.457031-4.576172,26.045898-9.960938,52.644531-16.158203,79.793945-1.625977.148438-3.320312.220703-5.09082.220703h-5.09082c-3.838867,0-7.636719-.072266-11.399414-.220703-3.762695-.145508-7.563477-.587891-11.398438-1.328125-4.724609-9.884766-9.666992-19.661133-14.830078-29.328125-5.166992-9.663086-10.037109-19.588867-14.608398-29.770508-2.068359,5.018555-4.392578,9.887695-6.972656,14.609375-2.583008,4.723633-5.350586,9.444336-8.299805,14.165039-3.838867,5.754883-7.526367,11.585938-11.067383,17.486328-3.541992,5.90332-7.010742,11.879883-10.40332,17.928711l-36.078125-.885742c-3.396484-13.280273-6.605469-26.412109-9.628906-39.398438-3.025391-12.983398-6.013672-26.118164-8.963867-39.398438-3.838867-16.524414-7.785156-32.869141-11.841797-49.027344-4.060547-16.157715-8.227539-32.426758-12.505859-48.805664h64.188477c.588867,4.869629,1.107422,9.73877,1.549805,14.608398s.885742,9.666504,1.328125,14.387207c1.179688,12.837891,2.507812,25.564941,3.984375,38.181152,1.472656,12.616211,2.950195,25.34375,4.426758,38.181641,2.506836-8.999023,5.052734-17.928711,7.635742-26.782227,2.580078-8.853516,5.422852-17.707031,8.521484-26.561523,2.65625-7.967773,5.236328-15.825684,7.74707-23.572266,2.507812-7.74707,4.942383-15.604492,7.304688-23.572754h10.845703c4.869141,17.855957,10.327148,35.379883,16.378906,52.567871,6.048828,17.192383,12.616211,34.34668,19.699219,51.461914,3.6875-16.081055,6.896484-32.239258,9.628906-48.473633,2.728516-16.230469,5.568359-32.460938,8.521484-48.694824l34.086914,1.770996Z" style="fill: #fff; stroke-width: 0px;"/>
</svg>