<?xml version="1.0" encoding="UTF-8"?>
<svg id="Layer_1" data-name="Layer 1" xmlns="http://www.w3.org/2000/svg" viewBox="0 0 512 512">
  <polygon points="200.55889 119.835295 124.28747 139.838514 46.39389 242.637174 133.233351 341.174918 152.231127 425.973041 348.840723 469.886245 456.998495 387.814724 455.419638 295.818617 364.722698 185.897384 271.928174 171.340024 200.55889 119.835295" style="fill: #d81e5b; stroke-width: 0px;"/>
  <path d="m258.069336,320.107422c-5.078125,1.163086-10.131836,2.24707-15.155273,3.253906-5.026367,1.003906-10.131836,1.928711-15.314453,2.777344-6.347656-9.625977-12.616211-19.123047-18.804688-28.486328-6.189453-9.363281-12.616211-18.698242-19.28125-28.008789l-16.980469,16.503906-1.586914,35.230469c-2.435547-.107422-4.84082-.186523-7.220703-.238281-2.380859-.054688-4.736328-.079102-7.0625-.079102-2.22168,0-4.391602.051758-6.505859.158203-2.118164.104492-4.233398.317383-6.348633.634766-1.269531-9.732422-2.458984-19.44043-3.570312-29.120117-1.110352-9.680664-2.089844-19.44043-2.935547-29.279297-.848633-9.838867-1.507812-19.650879-1.984375-29.437988-.475586-9.78418-.926758-19.598633-1.348633-29.437988,7.93457.213379,15.790039.344727,23.566406.396973,7.776367.054688,15.631836.186035,23.566406.396484l-.952148,36.817383c5.712891-5.923828,11.108398-11.954102,16.186523-18.091309,5.078125-6.134277,10.31543-12.37793,15.710938-18.726074,5.078125-.317383,10.208984-.65918,15.393555-1.03125,5.182617-.369629,10.31543-.766113,15.393555-1.19043l-.634766,11.743652-33.643555,35.071777c8.039062,11.956543,16.15918,23.699707,24.359375,35.22998,8.198242,11.532227,16.583984,23.168945,25.15332,34.912109Z" style="fill: #fff; stroke-width: 0px;"/>
  <path d="m398.856445,266.974609c-2.557617,22.769531-5.724609,44.900391-9.49707,66.388672-3.775391,21.490234-8.21875,43.438477-13.333008,65.839844-1.34082.123047-2.739258.182617-4.200195.182617h-4.201172c-3.166992,0-6.300781-.05957-9.405273-.182617-3.104492-.120117-6.241211-.485352-9.40625-1.095703-3.897461-8.15625-7.975586-16.223633-12.236328-24.199219-4.263672-7.973633-8.28125-16.163086-12.053711-24.564453-1.707031,4.140625-3.624023,8.158203-5.75293,12.053711-2.131836,3.898438-4.415039,7.792969-6.848633,11.688477-3.167969,4.749023-6.209961,9.55957-9.131836,14.428711-2.922852,4.871094-5.785156,9.801758-8.583984,14.792969l-29.769531-.730469c-2.802734-10.958008-5.451172-21.792969-7.945312-32.508789-2.49707-10.712891-4.961914-21.550781-7.396484-32.509766-3.167969-13.634766-6.423828-27.121094-9.770508-40.453125-3.350586-13.333008-6.789062-26.755859-10.319336-40.270996h52.964844c.484375,4.018066.913086,8.035645,1.27832,12.053223.365234,4.018555.730469,7.976562,1.095703,11.87207.972656,10.592773,2.068359,21.09375,3.287109,31.503906,1.21582,10.410156,2.43457,20.912109,3.652344,31.504883,2.069336-7.424805,4.169922-14.793945,6.301758-22.098633,2.128906-7.305664,4.474609-14.611328,7.03125-21.916992,2.191406-6.574219,4.320312-13.057617,6.392578-19.450195,2.068359-6.391602,4.077148-12.875977,6.026367-19.450195h8.949219c4.018555,14.733398,8.521484,29.192383,13.514648,43.375,4.991211,14.186523,10.411133,28.34082,16.254883,42.462891,3.041992-13.269531,5.69043-26.601562,7.945312-39.99707,2.250977-13.392578,4.59375-26.78418,7.03125-40.179688l28.125977,1.460938Z" style="fill: #fff; stroke-width: 0px;"/>
  <g>
    <path d="m67.318359,153.154297l10.323242,7.974609c-1.155273,2.344238-2.31543,4.648438-3.482422,6.914062-1.165039,2.265625-2.393555,4.52002-3.681641,6.76123-1.356445,2.331055-2.734375,4.645508-4.135742,6.942383-1.399414,2.297363-2.912109,4.509766-4.53418,6.637695-.473633.621582-1.1875,1.513184-2.144531,2.67627-.956055,1.163574-1.992188,2.337402-3.105469,3.521484-1.113281,1.185059-2.208984,2.276855-3.287109,3.277344-1.078125,1.001465-1.974609,1.648926-2.69043,1.944336-.682617.251953-1.40332.438965-2.162109.560059-.759766.123047-1.496094.192383-2.209961.208496-1.861328.052734-3.716797-.134277-5.564453-.562012-1.847656-.425781-3.638672-1.020508-5.37207-1.78125-1.733398-.759766-3.413086-1.637207-5.038086-2.631836-1.625977-.992676-3.170898-2.04834-4.633789-3.163574-1.772461-1.351562-3.537109-2.854004-5.291992-4.507324-1.75293-1.651855-3.393555-3.410156-4.916992-5.273438-1.525391-1.861816-2.87207-3.818848-4.043945-5.868652-1.171875-2.049316-2.083008-4.164062-2.735352-6.343262-.163086-.61377-.345703-1.384277-.550781-2.3125-.204102-.92627-.253906-1.734863-.147461-2.42627.24707-1.704102.714844-3.466797,1.404297-5.291016.688477-1.822266,1.519531-3.625488,2.492188-5.407715.973633-1.78125,2.003906-3.501465,3.092773-5.160645,1.088867-1.657227,2.140625-3.152344,3.154297-4.48291,1.925781-2.526855,3.99707-4.943848,6.210938-7.251953,2.21582-2.306641,4.589844-4.387207,7.124023-6.241211,1.128906,1.001953,2.286133,1.989746,3.472656,2.962402,1.185547.974609,2.375977,1.916992,3.573242,2.82959,2.882812,2.197266,5.836914,4.34375,8.864258,6.441406-2.274414,1.420898-4.40625,3.09082-6.394531,5.009277-1.989258,1.919434-3.793945,3.942383-5.416016,6.070801-.338867.443848-.795898,1.112305-1.371094,2.004395-.575195.893555-1.212891,1.914551-1.913086,3.0625-.700195,1.148926-1.392578,2.356445-2.077148,3.621582-.68457,1.266113-1.266602,2.48877-1.743164,3.666016-.477539,1.178711-.817383,2.268555-1.020508,3.27002-.202148,1.002441-.19043,1.766113.040039,2.291992.220703.448242.609375.973145,1.166992,1.572754.558594.601562,1.167969,1.205566,1.826172,1.812012.658203.60791,1.311523,1.175781,1.959961,1.70459.647461.529785,1.171875.945801,1.570312,1.25.399414.304199,1.230469.869141,2.496094,1.691895,1.264648.824219,2.624023,1.685059,4.077148,2.58252,1.454102.898438,2.811523,1.669922,4.071289,2.314941,1.260742.645508,2.064453.925781,2.410156.838379.301758-.120117.658203-.42627,1.069336-.919922.411133-.491699.683594-.827637.819336-1.005371,1.655273-2.171875,3.319336-4.583496,4.990234-7.236816,1.670898-2.650879,3.289062-5.39502,4.856445-8.232422,1.566406-2.835938,3.084961-5.655762,4.556641-8.460938,1.470703-2.803223,2.818359-5.421875,4.041992-7.854004Z" style="fill: #d81e5b; stroke-width: 0px;"/>
    <path d="m102.616211,91.875488c.318359.314453.624023.617676.921875.911621.296875.294434.583984.619141.862305.97168.515625.589355,1.328125,1.590332,2.439453,3.00293,1.111328,1.414551,2.212891,2.936035,3.305664,4.565918,1.091797,1.630371,2.016602,3.212891,2.773438,4.745605.757812,1.53418,1.05957,2.695312.905273,3.483887-.076172.39502-.732422,1.334473-1.966797,2.818848-1.233398,1.484863-2.761719,3.266602-4.583984,5.345703-1.822266,2.078613-3.832031,4.307617-6.027344,6.683105-2.194336,2.377441-4.291992,4.634277-6.291992,6.773438-1.999023,2.138672-3.75293,4.011719-5.262695,5.614746-1.509766,1.605469-2.520508,2.664551-3.029297,3.179199-.235352.237793-.637695.644531-1.206055,1.218262-.569336.575195-1.176758,1.17041-1.824219,1.783691-.646484.614746-1.264648,1.179688-1.853516,1.694336-.588867.51709-1.040039.853516-1.354492,1.012207-.748047.359863-1.623047.59082-2.62793.693848-1.004883.10498-2.029297.109375-3.075195.015625-1.043945-.092285-2.060547-.254395-3.047852-.486816-.986328-.230469-1.835938-.541016-2.546875-.933105-.553711-.312012-1.31543-.870117-2.285156-1.67334-.970703-.802734-1.959961-1.664062-2.969727-2.586426-1.010742-.920898-1.980469-1.822266-2.912109-2.705078-.930664-.881348-1.633789-1.558594-2.109375-2.029297-.751953-.744629-1.772461-1.793457-3.061523-3.147949-1.288086-1.352051-2.527344-2.813965-3.717773-4.385742-1.191406-1.570312-2.204102-3.141113-3.040039-4.714844-.835938-1.572266-1.138672-2.951172-.908203-4.134766.115234-.512207.525391-1.283203,1.229492-2.3125.704102-1.027344,1.585938-2.195801,2.643555-3.502441,1.057617-1.306152,2.222656-2.662109,3.49707-4.068359,1.273438-1.405273,2.538086-2.761719,3.792969-4.069824,1.253906-1.306641,2.430664-2.515625,3.529297-3.625488,1.097656-1.108398,2-1.97998,2.706055-2.615723.628906-.554688,1.500977-1.376953,2.619141-2.467285,1.118164-1.088379,2.374023-2.297852,3.765625-3.626465,1.392578-1.327148,2.864258-2.674316,4.414062-4.043457,1.549805-1.367188,3.032227-2.606445,4.445312-3.71875,1.413086-1.110352,2.728516-2.023438,3.947266-2.740234,1.21875-.714844,2.162109-1.055176,2.833008-1.019531,1.06543.035156,2.308594.442383,3.732422,1.222168,1.422852.781738,2.84668,1.700195,4.271484,2.757324,1.423828,1.057129,2.770508,2.154297,4.037109,3.290527,1.268555,1.137207,2.27832,2.078125,3.030273,2.822754Zm-11.222656,13.835449c-.475586-.470703-1.049805-.999023-1.722656-1.587891-.672852-.586914-1.375977-1.165039-2.108398-1.733398-.732422-.567383-1.483398-1.075195-2.254883-1.525879-.770508-.44873-1.47168-.750977-2.103516-.905762-.829102-.191406-1.833008.029785-3.012695.666016-1.178711.638184-2.376953,1.432129-3.594727,2.383789-1.216797.953125-2.365234,1.935059-3.443359,2.944824-1.079102,1.011719-1.874023,1.774414-2.383789,2.288574-.274414.277832-.753906.782715-1.44043,1.515625-.685547.733398-1.391602,1.505371-2.117188,2.316895-.724609.812012-1.371094,1.604492-1.938477,2.375-.568359.772461-.890625,1.315918-.967773,1.631348-.115234.591797-.023438,1.232422.276367,1.92041.298828.689453.696289,1.376465,1.193359,2.062988.495117.687988,1.021484,1.326172,1.576172,1.914062.554688.589355,1.010742,1.059082,1.367188,1.412109.357422.353027,1.03125.960938,2.020508,1.822754.990234.862305,2.058594,1.76416,3.207031,2.703125,1.147461.941406,2.236328,1.763672,3.264648,2.466797,1.02832.705078,1.779297,1.055176,2.251953,1.052734.591797.037598,1.369141-.233398,2.332031-.810059.962891-.576172,1.955078-1.241699,2.975586-1.996094,1.021484-.753906,1.973633-1.518066,2.856445-2.291504.882812-.772949,1.500977-1.337891,1.853516-1.694824.626953-.633301,1.352539-1.405762,2.175781-2.317383.823242-.909668,1.597656-1.890137,2.321289-2.938965.723633-1.047363,1.338867-2.10498,1.845703-3.172852.507812-1.065918.757812-2.073242.75293-3.019531-.001953-.550781-.202148-1.180664-.600586-1.88916-.398438-.706543-.875-1.413574-1.429688-2.121094-.555664-.706055-1.130859-1.373047-1.725586-2.001953-.594727-.626953-1.070312-1.117676-1.426758-1.470703Z" style="fill: #d81e5b; stroke-width: 0px;"/>
    <path d="m171.072266,85.776855c.370117,1.458984.743164,2.932129,1.120117,4.417969.376953,1.486816.696289,2.972168.958008,4.458496l-17.788086,5.717773c-.49707-2.86377-1.026367-5.691895-1.589844-8.482422-.564453-2.790039-1.208984-5.616699-1.93457-8.481445-.068359-.27002-.185547-.729492-.349609-1.37793s-.367188-1.330566-.605469-2.046387c-.239258-.71582-.467773-1.391113-.685547-2.025879-.21875-.634766-.389648-1.07959-.511719-1.336914-.462891-.6875-.911133-1.26416-1.344727-1.72998-.43457-.463867-.894531-.808105-1.381836-1.029785-.488281-.221191-1.045898-.32373-1.674805-.308594-.628906.016602-1.375977.133301-2.240234.352051-.648438.164551-1.458984.428223-2.430664.789062-.972656.362793-1.945312.781738-2.916992,1.256836-.97168.477051-1.875977.993652-2.711914,1.550781-.837891.557129-1.389648,1.100586-1.658203,1.62793l5.900391,23.953125c-.163086-.1875-.500977-.217773-1.013672-.087891-.514648.130371-.878906.223145-1.094727.277832-1.621094.410645-3.279297.904297-4.974609,1.476562-1.695312.574219-3.325195,1.174805-4.891602,1.80127-2.319336-6.197754-4.551758-12.390625-6.693359-18.576172-2.144531-6.185547-4.375977-12.376953-6.694336-18.576172,1.066406-.327148,2.136719-.641602,3.211914-.943359,1.073242-.300781,2.150391-.588379,3.231445-.862793,1.405273-.355957,2.833984-.675293,4.286133-.95752,1.452148-.281738,2.887695-.572754,4.307617-.875977l2.149414,6.097656c.882812-2.868652,2.40918-5.470215,4.578125-7.803711,2.169922-2.332031,4.739258-3.875977,7.711914-4.629395,1.512695-.383301,3.100586-.699707,4.763672-.94873,1.662109-.249023,3.296875-.318359,4.907227-.208984,1.608398.109863,3.18457.429688,4.728516.95752,1.542969.529785,2.944336,1.353516,4.207031,2.470703.595703.539062,1.204102,1.406738,1.823242,2.600098.618164,1.195312,1.239258,2.5625,1.859375,4.101074.620117,1.540039,1.223633,3.183594,1.811523,4.932617.585938,1.749023,1.113281,3.427246,1.578125,5.034668s.87793,3.070312,1.242188,4.386719c.362305,1.317871.632812,2.327637.810547,3.029297Z" style="fill: #d81e5b; stroke-width: 0px;"/>
    <path d="m230.805664,86.282715c-.210938,1.490234-.422852,2.994629-.637695,4.512207-.214844,1.519043-.482422,3.014648-.802734,4.489258l-18.628906-1.449219c.625977-2.838379,1.207031-5.656738,1.743164-8.452148.535156-2.795898,1.009766-5.655762,1.423828-8.582031.039062-.275879.105469-.745117.198242-1.407715.09375-.662598.165039-1.370117.21582-2.123047.049805-.75293.09375-1.464844.132812-2.134766.038086-.67041.048828-1.146484.033203-1.431152-.167969-.811523-.364258-1.514648-.588867-2.109863-.225586-.594238-.521484-1.087402-.888672-1.477051s-.845703-.696289-1.432617-.92041c-.588867-.222656-1.324219-.397949-2.207031-.522461-.662109-.09375-1.511719-.157227-2.548828-.191406-1.037109-.033203-2.095703-.013672-3.174805.058105-1.080078.073242-2.113281.208496-3.097656.407227-.986328.198242-1.703125.491699-2.151367.878418l-3.616211,24.402832c-.080078-.23584-.380859-.391602-.905273-.46582-.525391-.074219-.897461-.126953-1.118164-.157715-1.655273-.233887-3.376953-.40625-5.162109-.518555-1.787109-.11084-3.523438-.172852-5.209961-.187012.202148-6.614258.483398-13.190918.844727-19.727051.359375-6.536621.640625-13.111816.84375-19.727051,1.111328.101562,2.220703.21582,3.330078.343262,1.107422.128906,2.212891.270508,3.317383.426758,1.43457.202637,2.87793.44873,4.330078.738281,1.450195.289062,2.888672.563965,4.317383.820801l-.321289,6.458008c1.90332-2.320312,4.302734-4.149414,7.193359-5.486816,2.891602-1.335938,5.855469-1.791016,8.891602-1.362305,1.544922.218262,3.134766.527344,4.767578.926758,1.632812.399902,3.171875.955078,4.620117,1.666504,1.447266.710938,2.785156,1.604492,4.013672,2.678223,1.226562,1.074707,2.211914,2.368164,2.957031,3.880371.34668.724609.581055,1.757812.702148,3.097168.119141,1.340332.174805,2.84082.166992,4.499512-.010742,1.660156-.074219,3.410156-.193359,5.250977-.120117,1.841309-.268555,3.59375-.447266,5.257812-.179688,1.663574-.350586,3.173828-.512695,4.529785-.164062,1.357422-.295898,2.394531-.397461,3.111328Z" style="fill: #d81e5b; stroke-width: 0px;"/>
    <path d="m290.920898,123.403809c-6.350586-3.629395-12.638672-7.302246-18.865234-11.018066-6.227539-3.71582-12.486328-7.435059-18.774414-11.157715-.167969.157227-.3125.330078-.432617.516602-.121094.187988-.242188.375488-.362305.5625-1.027344,1.593262-1.450195,3.044922-1.266602,4.356934.181641,1.311523.698242,2.490234,1.549805,3.536621.850586,1.045898,1.916992,2.016113,3.199219,2.908203,1.28125.892578,2.485352,1.70166,3.609375,2.42627,3.138672,2.023438,6.34668,3.942383,9.62207,5.755371,3.274414,1.8125,6.581055,3.629883,9.918945,5.449219l-6.641602,11.537598c-3.183594-1.853027-6.34082-3.722168-9.46875-5.606934-3.130859-1.884277-6.241211-3.82373-9.333008-5.817383-.657227-.42334-1.855469-1.211914-3.597656-2.368652-1.742188-1.155762-3.571289-2.43457-5.486328-3.835938-1.916992-1.400391-3.681641-2.753906-5.292969-4.058594-1.614258-1.304688-2.594727-2.302734-2.945312-2.993652-.90918-1.779785-1.351562-3.589844-1.325195-5.430664.025391-1.839844.314453-3.677246.866211-5.510254.551758-1.833984,1.266602-3.611328,2.145508-5.333496.876953-1.722656,1.775391-3.347656,2.696289-4.877441.103516-.264648.25-.518555.44043-.760742.189453-.242188.359375-.480469.510742-.715332,1.601562-2.48291,3.357422-4.617188,5.271484-6.401855,1.912109-1.784668,4.245117-3.216309,6.99707-4.294434,1.890625-.771484,4.09668-1.006348,6.623047-.705078,2.524414.30127,5.085938.907715,7.682617,1.818359,2.595703.912109,5.086914,1.986328,7.472656,3.225586,2.384766,1.23877,4.396484,2.386719,6.037109,3.444336,1.452148.936035,3.149414,2.213867,5.092773,3.830078,1.941406,1.617188,3.758789,3.402344,5.452148,5.355469,1.691406,1.953125,3.071289,3.95459,4.139648,6.001953,1.067383,2.04834,1.452148,3.970703,1.15625,5.769531-.087891.341309-.292969.890137-.613281,1.644531-.321289.754883-.69043,1.611816-1.108398,2.568848-.418945.958008-.886719,1.965332-1.40332,3.025391-.517578,1.059082-1.016602,2.064941-1.496094,3.015137-.480469.950684-.912109,1.800293-1.294922,2.54834s-.641602,1.277344-.775391,1.589355Zm-6.250977-11.292969c1.047852-2.242676,1.570312-4.210938,1.567383-5.904297s-.389648-3.202148-1.15918-4.52832c-.771484-1.326172-1.841797-2.545898-3.210938-3.662109-1.371094-1.115234-2.899414-2.216797-4.585938-3.304199-.5625-.362793-1.272461-.803711-2.130859-1.324219-.859375-.519531-1.748047-.993164-2.666992-1.42041-.918945-.42627-1.829102-.764648-2.728516-1.013672-.902344-.248535-1.698242-.29834-2.391602-.148438-.509766.069336-1.02832.282227-1.556641.638672-.527344.355957-1.042969.769531-1.545898,1.241211s-.963867.955078-1.380859,1.447754c-.417969.494141-.748047.928223-.989258,1.302734-.483398.75-.881836,1.521484-1.194336,2.314941l23.973633,14.360352Z" style="fill: #d81e5b; stroke-width: 0px;"/>
    <path d="m355.889648,119.270508c-.331055,2.543457-.983398,4.960938-1.956055,7.250488-.394531.005371-1.549805-.075195-3.467773-.240723s-4.200195-.349609-6.84375-.554199c-2.643555-.203613-5.485352-.404785-8.522461-.604004-3.039062-.198242-5.856445-.354492-8.456055-.469238-2.599609-.113281-4.814453-.163574-6.642578-.148438-1.830078.014648-2.870117.118652-3.119141.310547-.985352.65918-1.771484,1.512207-2.357422,2.560059-.586914,1.048828-.951172,2.125-1.094727,3.230469-.086914.663086-.084961,1.184082.006836,1.561035.09082.37793.274414.809082.548828,1.293945.143555.1875.706055.401855,1.6875.641602.980469.241211,2.074219.468262,3.28418.681152,1.208008.213867,2.335938.402832,3.383789.566895,1.045898.165527,1.652344.257812,1.818359.279297,3.980469.518555,7.97168.954102,11.973633,1.306641s8.010742.650879,12.027344.89209l-1.194336,14.349121c-5.586914-.276855-11.183594-.571289-16.793945-.880371-5.609375-.309082-11.207031-.827637-16.790039-1.554688-.277344-.036133-.677734-.088379-1.202148-.156738-.526367-.068359-1.09082-.155273-1.694336-.262695-.605469-.106934-1.180664-.223633-1.725586-.351562-.545898-.126465-.925781-.232422-1.138672-.316895-1.118164-.48291-2.217773-1.005859-3.295898-1.567871-1.080078-.562012-2.075195-1.225586-2.987305-1.991211-.912109-.764648-1.683594-1.638672-2.314453-2.620605-.631836-.980957-1.030273-2.129395-1.196289-3.444824-.113281-.85791-.151367-1.972656-.112305-3.345703.038086-1.37207.12207-2.779785.255859-4.225098.130859-1.444336.273438-2.859375.425781-4.245605.151367-1.384766.290039-2.547363.412109-3.487793.28125-2.15625.571289-4.169922.87207-6.04248.298828-1.87207.828125-3.560547,1.586914-5.063965.756836-1.503906,1.839844-2.796387,3.246094-3.87793,1.40625-1.082031,3.331055-1.94043,5.775391-2.579102,1.106445-.304688,2.727539-.445801,4.861328-.42041,2.132812.024414,4.355469.117676,6.667969.27832,2.311523.161133,4.521484.350098,6.629883.568359,2.107422.219238,3.742188.40332,4.90332.554199,3.869141.504395,7.713867,1.089355,11.535156,1.755859,3.820312.666504,7.647461,1.390137,11.481445,2.17041-.013672,1.403809-.054688,2.790039-.120117,4.158691-.066406,1.369629-.185547,2.716309-.358398,4.042969Z" style="fill: #d81e5b; stroke-width: 0px;"/>
    <path d="m397.365234,160.054199l-6.212891,13.41748c-1.720703-.48584-3.436523-.983398-5.146484-1.495117-1.711914-.511719-3.40918-1.0625-5.091797-1.652832-.895508-.313965-2.069336-.756348-3.523438-1.324219-1.455078-.569824-2.947266-1.197266-4.480469-1.881348-1.532227-.684082-2.966797-1.39502-4.303711-2.129883-1.337891-.734863-2.363281-1.434082-3.075195-2.097656-1.05957-1.020996-1.831055-2.148926-2.314453-3.381836s-.790039-2.506348-.918945-3.822754c-.129883-1.314941-.125977-2.671875.010742-4.072266.136719-1.399414.347656-2.758301.631836-4.07666.266602-1.264648.605469-2.608398,1.015625-4.030273.40918-1.420898.859375-2.873535,1.350586-4.355957.489258-1.481934.979492-2.919922,1.46875-4.314453.488281-1.393555.945312-2.695312,1.370117-3.90625l.830078-2.367188-4.892578-1.71582c1.040039-2.293945,1.979492-4.592773,2.818359-6.898438.837891-2.305664,1.777344-4.605469,2.818359-6.898926l4.678711,1.818848,4.09668-11.678711c2.794922,1.630859,5.674805,2.97998,8.637695,4.04834,2.961914,1.069336,5.907227,2.235352,8.832031,3.496582l-4.392578,12.018066,6.490234,2.719238c-.128906.368652-.236328.714355-.320312,1.039551-.084961.324707-.191406.672363-.320312,1.039551-.516602,1.473633-1.137695,2.866211-1.863281,4.17627-.725586,1.311523-1.522461,2.611816-2.388672,3.90332l-5.759766-2.02002c-.955078,2.382812-1.882812,4.775391-2.783203,7.17627-.902344,2.401855-1.776367,4.812988-2.625,7.232422-.40625,1.157715-.731445,2.210938-.974609,3.158203-.244141.94873-.306641,1.797852-.185547,2.549316.120117.750977.519531,1.42334,1.198242,2.015625s1.727539,1.137695,3.148438,1.635742c1.945312.682617,3.938477,1.234375,5.977539,1.65332,2.038086.419922,4.104492.76123,6.199219,1.022461Z" style="fill: #d81e5b; stroke-width: 0px;"/>
    <path d="m442.732422,197.886719c-4.836914-5.487305-9.600586-10.995605-14.291992-16.523926-4.691406-5.529785-9.412109-11.072266-14.15918-16.62793-.210938.094727-.40332.211426-.577148.349121-.174805.138672-.350586.277344-.524414.415039-1.487305,1.175781-2.356445,2.413086-2.607422,3.713867-.250977,1.299805-.143555,2.582031.324219,3.848145.466797,1.264648,1.162109,2.527344,2.087891,3.786133.922852,1.258301,1.800781,2.413086,2.630859,3.462891,2.316406,2.929199,4.731445,5.781738,7.245117,8.556152,2.512695,2.773926,5.053711,5.562012,7.625,8.362793l-10.014648,8.771484c-2.413086-2.782715-4.796875-5.571777-7.148438-8.366699-2.352539-2.794922-4.668945-5.635742-6.951172-8.521973-.484375-.612793-1.364258-1.746582-2.638672-3.404297-1.274414-1.656738-2.592773-3.458008-3.952148-5.40332-1.361328-1.944824-2.59375-3.795898-3.697266-5.551758-1.105469-1.756348-1.710938-3.017578-1.819336-3.784668-.285156-1.978516-.118164-3.833984.501953-5.567383.618164-1.73291,1.486328-3.378418,2.600586-4.93457,1.114258-1.557129,2.365234-3.008301,3.753906-4.354004,1.386719-1.34668,2.762695-2.594238,4.128906-3.744141.182617-.216797.40332-.40918.662109-.577148.256836-.168457.496094-.338379.714844-.511719,2.317383-1.83252,4.669922-3.28418,7.057617-4.354492,2.386719-1.070801,5.056641-1.671387,8.009766-1.802246,2.038086-.119141,4.202148.37207,6.495117,1.473633,2.291992,1.101074,4.519531,2.50293,6.682617,4.204102,2.162109,1.702148,4.171875,3.523926,6.02832,5.467285s3.389648,3.679688,4.600586,5.210938c1.071289,1.35498,2.264648,3.113281,3.581055,5.270996,1.314453,2.158203,2.457031,4.43457,3.427734,6.830078.969727,2.39502,1.628906,4.735352,1.977539,7.018066.348633,2.283203.091797,4.227051-.770508,5.833496-.193359.294434-.564453.747559-1.111328,1.358398-.548828.609863-1.174805,1.301758-1.879883,2.072266-.706055.771484-1.473633,1.57373-2.305664,2.40918-.832031.834961-1.629883,1.625488-2.390625,2.370117-.761719.744141-1.444336,1.408691-2.048828,1.992676-.603516.584473-1.019531,1.001953-1.24707,1.253418Zm-2.265625-12.707031c1.716797-1.783691,2.847656-3.477539,3.391602-5.080566.544922-1.603516.666016-3.156738.366211-4.660645-.300781-1.503906-.918945-3.003906-1.854492-4.50293-.936523-1.498535-2.026367-3.035156-3.271484-4.609375-.415039-.524902-.944336-1.171875-1.588867-1.941895-.644531-.769531-1.333008-1.504883-2.063477-2.206055-.732422-.700195-1.484375-1.314941-2.255859-1.841309-.772461-.526367-1.509766-.831055-2.214844-.913574-.504883-.099121-1.064453-.064941-1.678711.101562-.615234.166016-1.236328.391113-1.865234.674805-.62793.283691-1.220703.592285-1.774414.923828-.555664.332031-1.007812.636719-1.357422.912598-.700195.553711-1.325195,1.154785-1.87793,1.804688l18.044922,21.338867Z" style="fill: #d81e5b; stroke-width: 0px;"/>
    <path d="m494.430664,238.327148c-1.836914,1.452148-3.652344,2.887207-5.444336,4.304688-1.793945,1.418457-3.642578,2.808594-5.548828,4.173828-4.092773,3.093262-8.220703,6.074219-12.385742,8.94043-4.166016,2.867188-8.359375,5.720703-12.580078,8.560547-3.40918-3.772461-6.740234-7.53418-9.991211-11.288086-3.253906-3.753906-6.452148-7.621094-9.598633-11.599609-.415039-.524902-1.061523-1.364258-1.938477-2.518555-.87793-1.154785-1.804688-2.394531-2.779297-3.71875-.977539-1.324219-1.860352-2.598633-2.649414-3.821777-.791016-1.223633-1.283203-2.183594-1.478516-2.881836-1.439453-4.335449-1.767578-8.144043-.986328-11.42627.779297-3.281738,3.007812-6.375977,6.680664-9.280273l1.049805-.830078c1.686523-1.191406,3.232422-2.201172,4.640625-3.029297,1.405273-.828125,2.81543-1.427246,4.228516-1.797852,1.412109-.370605,2.885742-.506348,4.422852-.405762,1.535156.100586,3.316406.486328,5.341797,1.160156,1.416016.442871,2.861328,1.148438,4.336914,2.114258,1.473633.966797,2.925781,2.039062,4.356445,3.218262,1.428711,1.179199,2.754883,2.405762,3.975586,3.679199,1.219727,1.273926,2.279297,2.478516,3.178711,3.616211,1.660156,2.099121,3.157227,4.308594,4.494141,6.627441,1.334961,2.318848,2.509766,4.748535,3.523438,7.288086,2.712891-2.501465,5.419922-4.942871,8.119141-7.326172,2.699219-2.383789,5.348633-4.851562,7.950195-7.405273,2.085938,2.188965,4.175781,4.337402,6.271484,6.448242,2.094727,2.109863,4.189453,4.219727,6.285156,6.331055-2.240234,1.841309-4.477539,3.663086-6.711914,5.466309-2.235352,1.802734-4.489258,3.603516-6.762695,5.400879Zm-27.745117,5.627441c1.004883-.79541,2.010742-1.590332,3.016602-2.38623,1.005859-.794922,1.993164-1.612305,2.96582-2.451172-2.046875-2.858887-4.160156-5.665527-6.337891-8.420898-.311523-.393555-.980469-1.21582-2.003906-2.466309-1.025391-1.251465-2.131836-2.562012-3.321289-3.930664-1.189453-1.369629-2.344727-2.605957-3.46582-3.708984-1.12207-1.103516-1.929688-1.743652-2.424805-1.920898-1-.274902-1.998047-.144043-2.992188.394531-.99707.538086-1.866211,1.102051-2.609375,1.689453-.350586.276855-.802734.669922-1.358398,1.180664-.555664.509766-1.108398,1.071289-1.655273,1.681641-.547852.610352-1.025391,1.219727-1.433594,1.82666-.40918.607422-.657227,1.123047-.74707,1.550293-.027344.234863.044922.550781.216797.947754.171875.397949.390625.810547.65918,1.238281.267578.428223.547852.827637.841797,1.199707.293945.371094.527344.666016.700195.885254,1.97168,2.492676,4.033203,4.876953,6.189453,7.15332,2.154297,2.275879,4.391602,4.522461,6.712891,6.737793.363281.280762.746094.652832,1.149414,1.116699.402344.463867.825195.840332,1.267578,1.130371l.130859-.103516c.042969-.03418.104492-.047363.182617-.038086.768555-.46582,1.494141-.986328,2.177734-1.561523.680664-.575195,1.394531-1.15625,2.138672-1.744141Z" style="fill: #d81e5b; stroke-width: 0px;"/>
  </g>
</svg>