<?xml version="1.0" encoding="UTF-8"?>
<svg id="Layer_1" data-name="Layer 1" xmlns="http://www.w3.org/2000/svg" viewBox="0 0 512 512">
  <polygon points="206.065096 96.234098 138.380619 113.985274 69.256611 205.210449 146.319336 292.654418 163.178267 367.905627 337.652765 406.874906 433.633701 334.043327 432.232597 252.404511 351.746683 154.858651 269.39934 141.940218 206.065096 96.234098" style="fill: #118ab2; stroke-width: 0px;"/>
  <path d="m257.101562,273.958984c-4.507324,1.032227-8.991699,1.993164-13.449707,2.886719-4.460449.891602-8.991211,1.711914-13.590332,2.464844-5.632812-8.541992-11.195801-16.969727-16.687988-25.278809s-11.195801-16.59375-17.11084-24.856445l-15.068359,14.646484-1.408203,31.26416c-2.161133-.094727-4.29541-.165039-6.407715-.211914-2.112793-.047852-4.203125-.070312-6.26709-.070312-1.97168,0-3.896973.046875-5.773926.140625-1.879395.092773-3.756348.282227-5.633301.563477-1.126465-8.636719-2.182617-17.250977-3.168457-25.841797-.98584-8.590332-1.85498-17.251465-2.605469-25.98291-.752441-8.731445-1.337891-17.438477-1.760254-26.123535-.422363-8.683105-.823242-17.392578-1.197266-26.124023,7.041504.189453,14.012695.306152,20.913086.352051,6.900879.048828,13.871582.165039,20.913086.352051l-.844727,32.672363c5.069824-5.256836,9.85791-10.608398,14.364258-16.054199,4.506836-5.444336,9.153809-10.984863,13.942383-16.618164,4.506348-.28125,9.059082-.584961,13.660156-.915039,4.599121-.328125,9.153809-.680176,13.660156-1.056152l-.562988,10.420898-29.855957,31.123535c7.133789,10.610352,14.340332,21.031738,21.617188,31.263672,7.274902,10.234375,14.716797,20.561523,22.322266,30.982422Z" style="fill: #fff; stroke-width: 0px;"/>
  <path d="m382.037109,226.808105c-2.267578,20.206055-5.080078,39.845215-8.427734,58.913574-3.349609,19.072266-7.292969,38.548828-11.830078,58.427734-1.191406.109375-2.431641.162109-3.728516.162109h-3.728516c-2.810547,0-5.589844-.052734-8.345703-.162109-2.755859-.106445-5.539062-.430664-8.347656-.972656-3.458984-7.237305-7.078125-14.396484-10.857422-21.474609-3.785156-7.075195-7.349609-14.34375-10.697266-21.798828-1.515625,3.674805-3.216797,7.240234-5.105469,10.697266-1.892578,3.458984-3.917969,6.916016-6.078125,10.37207-2.810547,4.213867-5.509766,8.484375-8.103516,12.804688-2.59375,4.322266-5.132812,8.698242-7.617188,13.12793l-26.417969-.648438c-2.488281-9.724609-4.837891-19.339844-7.050781-28.849609-2.21582-9.506836-4.403809-19.125-6.563965-28.848633-2.811035-12.100586-5.700684-24.068359-8.670898-35.899902-2.973145-11.831055-6.024414-23.743652-9.157227-35.737305h47.001465c.429688,3.565918.810547,7.131348,1.134766,10.697266.324219,3.56543.648438,7.078125.972656,10.534668.863281,9.400391,1.835938,18.719727,2.916016,27.958008s2.160156,18.557617,3.242188,27.957031c1.835938-6.588867,3.699219-13.12793,5.591797-19.610352,1.888672-6.483398,3.970703-12.96582,6.240234-19.449219,1.945312-5.834473,3.833984-11.587891,5.671875-17.260742,1.835938-5.672363,3.619141-11.42627,5.347656-17.260742h7.943359c3.564453,13.074707,7.560547,25.90625,11.992188,38.492188,4.429688,12.588867,9.238281,25.149414,14.425781,37.682617,2.699219-11.775391,5.048828-23.607422,7.048828-35.494141,1.998047-11.884766,4.078125-23.769531,6.240234-35.65625l24.958984,1.296387Z" style="fill: #fff; stroke-width: 0px;"/>
</svg>