<?xml version="1.0" encoding="utf-8"?>
<!-- Generator: Adobe Illustrator 25.4.1, SVG Export Plug-In . SVG Version: 6.00 Build 0)  -->
<svg version="1.1" id="Layer_1" xmlns="http://www.w3.org/2000/svg" xmlns:xlink="http://www.w3.org/1999/xlink" x="0px" y="0px"
	 viewBox="0 0 278 369" style="enable-background:new 0 0 278 369;" xml:space="preserve">
<style type="text/css">
	.st0{fill:#06D6A0;stroke:#000000;stroke-width:8;stroke-miterlimit:10;}
	.st1{fill:#FFD166;stroke:#000000;stroke-width:8;stroke-miterlimit:10;}
	.st2{fill:#EF476F;stroke:#000000;stroke-width:8;stroke-miterlimit:10;}
</style>
<path class="st0" d="M102.7,360.5c-35.7-2.6-89.3-24.2-92.8-51.2c-3.8-30.1,94.8-40.5,159.8-41.8c78.2-1.6,111.4,18.5,99.1,43
	C254.6,338.8,153.2,364.1,102.7,360.5z"/>
<path class="st1" d="M120.2,291.9c30.4,48.6,57.9-3.8,96.6-72.8c39.4-70.3,40.3-160.7-12.6-200c-42.5-31.6-174,0.2-191.8,56.9
	C-16.9,169.4,69.1,210.3,120.2,291.9z"/>
<path class="st2" d="M44.8,120.2C43,104,50.4,84.7,72.9,82.8c31.4-2.6,34,35.3,41.2,44.9c5.6,7.5,11.6,7.1,18.7,5.6
	c18.1-3.8,10.6-59.1,34.5-68.7c6.8-2.7,16.5-0.3,31,10.8c39.3,29.9-4,91.3-43.9,105.9C97,202.2,48.6,153.9,44.8,120.2z"/>
</svg>
