<?xml version="1.0" encoding="utf-8"?>
<!-- Generator: Adobe Illustrator 27.4.1, SVG Export Plug-In . SVG Version: 6.00 Build 0)  -->
<svg version="1.1" id="Layer_1" xmlns="http://www.w3.org/2000/svg" xmlns:xlink="http://www.w3.org/1999/xlink" x="0px" y="0px"
	 viewBox="0 0 400.3 400.6" style="enable-background:new 0 0 400.3 400.6;" xml:space="preserve">
<style type="text/css">
	.st0{fill:#06D6A0;stroke:#000000;stroke-width:10;stroke-miterlimit:10;}
	.st1{fill:#FFD166;stroke:#000000;stroke-width:10;stroke-miterlimit:10;}
	.st2{fill:#EF476F;stroke:#000000;stroke-width:10;stroke-miterlimit:10;}
</style>
<path class="st0" d="M164,377.1c-35.7-2.6-89.3-24.2-92.8-51.2c-3.8-30.1,94.8-40.5,159.8-41.8c78.2-1.6,111.4,18.5,99.1,43
	C315.9,355.4,214.5,380.7,164,377.1z"/>
<path class="st1" d="M181.5,308.5c30.4,48.6,57.9-3.8,96.6-72.8c39.4-70.3,40.3-160.7-12.6-200C223,4.1,91.5,35.9,73.7,92.6
	C44.4,186,130.4,226.9,181.5,308.5z"/>
<path class="st2" d="M106.1,136.8c-1.8-16.2,5.6-35.5,28.1-37.4c31.4-2.6,34,35.3,41.2,44.9c5.6,7.5,11.6,7.1,18.7,5.6
	c18.1-3.8,10.6-59.1,34.5-68.7c6.8-2.7,16.5-0.3,31,10.8c39.3,29.9-4,91.3-43.9,105.9C158.3,218.8,109.9,170.5,106.1,136.8z"/>
</svg>
