<svg id="Layer_1" data-name="Layer 1" xmlns="http://www.w3.org/2000/svg" viewBox="0 0 433.33 386.09"><defs><style>.cls-1{fill:#51355a;}.cls-1,.cls-2,.cls-3{stroke:#000;stroke-miterlimit:10;stroke-width:6px;}.cls-2{fill:#ffd166;}.cls-3{fill:#ef476f;}</style></defs><path class="cls-1" d="M179.66,371.5C144,368.93,90.32,347.26,86.9,320.34c-3.83-30.1,94.82-40.54,159.76-41.84,78.24-1.57,111.37,18.53,99.14,43C331.65,349.79,230.19,375.14,179.66,371.5Z"/><path class="cls-2" d="M197.2,302.86c30.4,48.57,57.88-3.83,96.56-72.8,39.41-70.26,40.29-160.67-12.64-200-42.5-31.61-174,.17-191.79,56.89C60.06,180.4,146.15,221.3,197.2,302.86Z"/><path class="cls-3" d="M121.81,131.22C120,115,127.43,95.68,149.87,93.81c31.44-2.62,34,35.31,41.16,44.9,5.61,7.48,11.64,7.08,18.7,5.61,18.1-3.77,10.55-59.07,34.46-68.74,6.76-2.73,16.48-.32,31,10.75,39.29,29.93-4,91.32-43.91,105.94C174,213.23,125.56,164.89,121.81,131.22Z"/></svg>