<svg id="Layer_1" data-name="Layer 1" xmlns="http://www.w3.org/2000/svg" viewBox="0 0 587 523"><defs><style>.cls-1{fill:#51355a;}.cls-1,.cls-2,.cls-3{stroke:#000;stroke-miterlimit:10;stroke-width:6px;}.cls-2{fill:#ffd166;}.cls-3{fill:#ef476f;}</style></defs><path d="M68.88,436.72l.05,37.41a3.31,3.31,0,0,1-3.38,3.46,3.27,3.27,0,0,1-3.34-3.45v-3.92c-2.63,4.93-7.87,7.73-14.85,7.74C36.72,478,30,471.43,30,459.71l0-23a3.38,3.38,0,1,1,6.75,0l0,21.53c0,9.2,4.55,13.38,11.85,13.38,8.46,0,13.57-5.88,13.56-14.42l0-20.49a3.36,3.36,0,1,1,6.72,0Z"/><path d="M84.75,474.11l0-37.41a3.3,3.3,0,0,1,3.41-3.45,3.26,3.26,0,0,1,3.34,3.44v3.92c2.6-4.93,7.91-7.73,14.82-7.74,10.63,0,17.31,6.54,17.33,18.26l0,23a3.32,3.32,0,0,1-3.37,3.42,3.28,3.28,0,0,1-3.34-3.41l0-21.54c0-9.2-4.56-13.38-11.9-13.37-8.45,0-13.53,5.88-13.52,14.41l0,20.49a3.27,3.27,0,0,1-3.33,3.46A3.31,3.31,0,0,1,84.75,474.11Z"/><path d="M145.77,470v4a3.28,3.28,0,0,1-3.34,3.46A3.34,3.34,0,0,1,139,474l-.06-50.6a3.33,3.33,0,0,1,3.41-3.46,3.27,3.27,0,0,1,3.34,3.45l0,17.38c3.41-5.24,9.07-8,15.74-8,12.15,0,21.09,9.09,21.1,22.48s-8.89,22.51-21,22.53C154.82,477.82,149.31,475.27,145.77,470Zm14.79,1.46c8.34,0,15-6,15-16.16s-6.73-16.14-15.08-16.12c-9.08,0-15,7.27-15,16.16S151.48,471.46,160.56,471.45Z"/><path d="M190.05,455.27c0-13.35,9.33-22.52,22.44-22.54S235,441.86,235,455.21s-9.32,22.52-22.44,22.53S190.07,468.62,190.05,455.27Zm22.49,16.11c9,0,15.48-6.5,15.46-16.16s-6.46-16.14-15.5-16.12-15.44,6.5-15.42,16.16S203.5,471.39,212.54,471.38Z"/><path d="M253.4,473.89a3.28,3.28,0,0,1-3.34,3.45,3.31,3.31,0,0,1-3.42-3.44l0-37.41a3.38,3.38,0,1,1,6.76,0v3.26a13.18,13.18,0,0,1,12-7.08c3.57,0,6.4,1.08,8.08,2.71a5.45,5.45,0,0,1,1.94,3.91,3.22,3.22,0,0,1-3.29,3.54,4.33,4.33,0,0,1-2.95-1.47,8,8,0,0,0-5.52-2.17c-6,0-10.23,6.53-10.22,14.64Z"/><path d="M289.71,417.07a5.18,5.18,0,0,1,0,10.36,5.18,5.18,0,1,1,0-10.36Zm-3.38,56.77-.05-37.4a3.38,3.38,0,1,1,6.75,0l.05,37.4a3.38,3.38,0,1,1-6.75,0Z"/><path d="M308.9,473.81l0-37.4a3.32,3.32,0,0,1,3.41-3.46,3.28,3.28,0,0,1,3.35,3.45v3.92c2.6-4.94,7.91-7.74,14.81-7.74,10.64,0,17.32,6.53,17.33,18.25l0,23a3.32,3.32,0,0,1-3.38,3.42,3.28,3.28,0,0,1-3.34-3.41l0-21.54c0-9.19-4.55-13.38-11.89-13.37-8.46,0-13.53,5.88-13.52,14.42l0,20.48a3.28,3.28,0,0,1-3.34,3.46A3.32,3.32,0,0,1,308.9,473.81Z"/><path d="M360.58,476.38A8.61,8.61,0,0,1,366,468.3a7.35,7.35,0,0,1-3.27-6.08,7.58,7.58,0,0,1,3.91-6.92,12.39,12.39,0,0,1-3.58-8.95c0-8.43,6.93-13.83,17.71-13.84a21.92,21.92,0,0,1,11.3,2.66l4.77-3.92a4.12,4.12,0,0,1,2.59-1.09,2.9,2.9,0,0,1,2.88,2.82,3.62,3.62,0,0,1-1.47,2.68l-4.3,3.7a12.59,12.59,0,0,1,1.95,6.94c0,8.42-6.86,13.82-17.68,13.84a23.48,23.48,0,0,1-10-2A3.28,3.28,0,0,0,369,461c0,2,1.75,3.42,4.59,3.41l14.16,0c9.12,0,14,3.56,14,10.19,0,7.64-7.74,12-21.44,12.06C367.47,486.7,360.59,483.25,360.58,476.38Zm19.95,4.36c9.32,0,14.13-2.07,14.12-5.76,0-3.07-2.57-4.77-7.8-4.76l-14.28,0a12,12,0,0,1-1.75-.12,5.67,5.67,0,0,0-3.29,5.21C367.53,479.09,371.76,480.75,380.53,480.74Zm.32-26.35c6.67,0,10.78-3.11,10.77-8.2S387.5,438,380.83,438s-10.9,3.12-10.9,8.2S374.14,454.4,380.85,454.39Z"/><path d="M465.68,473.6l-9.21-12.32L449.84,467v2.68c0,4.42-2.94,7.53-7.24,7.53s-7.26-3.09-7.27-7.51L435.27,427c0-4.42,2.94-7.53,7.25-7.53s7.26,3.09,7.27,7.52l0,22.35,15-13.22c3.48-3.07,5.23-3.73,7.91-3.73,3.64,0,6.4,2.32,6.41,6.12,0,1.75-.81,4-3.45,6.21l-8.21,7.11,9.17,12.33c2.6,3.49,2.8,4.77,2.8,6.67,0,3-2.59,6.21-6.94,6.22A8.06,8.06,0,0,1,465.68,473.6Z"/><path d="M491,465.5l-6.28-23.58a10.61,10.61,0,0,1-.31-2.72c0-4.11,3-6.83,7.59-6.84a7,7,0,0,1,7.19,5.77l5.27,22.54L511,440.21c1.27-4,3.55-7.84,9.26-7.85s8,3.83,9.32,7.83l6.66,20.44,5.21-22.55a7,7,0,0,1,7.17-5.79c4.58,0,7.61,2.7,7.62,6.81a10.51,10.51,0,0,1-.31,2.72l-6.21,23.6c-1.63,6.21-5.11,11.88-12.21,11.89-6,0-10.1-4.06-12.63-11.85l-4.56-14.12-4.56,14.13c-2.51,7.8-6.54,11.88-12.59,11.89C496.1,477.37,492.6,471.67,491,465.5Z"/><path class="cls-1" d="M259.5,386.5c-35.62-2.57-89.34-24.24-92.77-51.16-3.83-30.1,94.83-40.54,159.77-41.84,78.23-1.57,111.36,18.53,99.14,43C411.48,364.79,310,390.14,259.5,386.5Z"/><path class="cls-2" d="M277,317.86c30.41,48.57,57.89-3.83,96.57-72.8C413,174.8,413.89,84.39,361,45c-42.51-31.61-174,.17-191.79,56.89C139.9,195.4,226,236.3,277,317.86Z"/><path class="cls-3" d="M201.65,146.22c-1.8-16.21,5.61-35.54,28.06-37.41,31.43-2.62,34,35.31,41.15,44.9,5.61,7.48,11.64,7.08,18.71,5.61,18.1-3.77,10.54-59.07,34.46-68.74,6.75-2.73,16.48-.32,31,10.75,39.28,29.93-4,91.32-43.92,105.94C253.82,228.23,205.39,179.89,201.65,146.22Z"/></svg>