<svg xmlns="http://www.w3.org/2000/svg" viewBox="0 0 579.06 171.9">
  <path d="M12.17,95.27c-1.16-10.43,3.61-22.86,18-24.06,20.22-1.68,21.85,22.71,26.47,28.87,3.61,4.82,7.48,4.56,12,3.61,11.64-2.42,6.78-38,22.16-44.2,4.34-1.76,10.6-.21,19.94,6.91,25.27,19.25-2.55,58.73-28.24,68.13C45.72,148,14.57,116.93,12.17,95.27Z" transform="translate(-10.5 -19.6)" style="fill: none;stroke: #fff;stroke-miterlimit: 10;stroke-width: 3px"/>
  <path d="M196.22,118.56c-7.7,28.57-34.08-8.86-57.74-29.3,3.6,29.68-17.61,53.58-36.09,34.88-18-18.19,3.36-67.27,38.22-66.27C187.77,59.24,202.22,96.3,196.22,118.56Z" transform="translate(-10.5 -19.6)" style="fill: none;stroke: #fff;stroke-miterlimit: 10;stroke-width: 3px"/>
  <path d="M201.46,23.12C221.49,11.06,231.73,56,219,79.44,245.55,68,262,89,257.58,107.3c-4,16.62-41.73,31.09-61.35,12C168.08,92,186.55,32.09,201.46,23.12Z" transform="translate(-10.5 -19.6)" style="fill: none;stroke: #fff;stroke-miterlimit: 10;stroke-width: 3px"/>
  <path d="M343,62.79c-18-1.2-24.34,3.85-27.67,6-15.06,9.81-12,62.85,6,60.15,48.12-7.22,7.57-23.11,16.84-32.49,8.73-8.82,37.29-1.2,37.29-15.63C375.47,70.08,361.76,64,343,62.79Z" transform="translate(-10.5 -19.6)" style="fill: none;stroke: #fff;stroke-miterlimit: 10;stroke-width: 3px"/>
  <path d="M380.29,65.2c-4.8,2.42-8.46,7.14-10.83,12-9,18.56-6,47.72,8.42,52.93,9.66,3.47,25.66-3.22,28.87-14.44C414,90.51,390.2,60.18,380.29,65.2Z" transform="translate(-10.5 -19.6)" style="fill: none;stroke: #fff;stroke-miterlimit: 10;stroke-width: 3px"/>
  <path d="M502.4,116.25c-7.7,28.57-34.08-8.86-57.74-29.3,3.61,29.68-17.6,53.58-36.09,34.89-18-18.2,3.37-67.28,38.23-66.27C494,56.93,508.4,94,502.4,116.25Z" transform="translate(-10.5 -19.6)" style="fill: none;stroke: #fff;stroke-miterlimit: 10;stroke-width: 3px"/>
  <path d="M534.28,189.77c-38.58,4.07-5.25-45.88,8.58-84.46-34.61,18.42-73.86,3.76-59.72-27.67C496.9,47,567,50,582.25,93.09,602.86,151.42,564.35,186.59,534.28,189.77Z" transform="translate(-10.5 -19.6)" style="fill: none;stroke: #fff;stroke-miterlimit: 10;stroke-width: 3px"/>
  <path d="M290.69,123.93c10.42-4.45,28-16.34,26.74-31.21C316,76.09,291.59,62.51,272.08,67.39c-23.5,5.87-36.72,37.73-27.26,52C252.72,131.36,275.91,130.24,290.69,123.93Z" transform="translate(-10.5 -19.6)" style="fill: none;stroke: #fff;stroke-miterlimit: 10;stroke-width: 3px"/>
</svg>
