<svg xmlns="http://www.w3.org/2000/svg" viewBox="0 0 962.97 971.54">
  <path d="M70.16,44c-1-8.86,3.07-19.41,15.33-20.44,17.17-1.43,18.56,19.3,22.48,24.53,3.07,4.09,6.37,3.87,10.23,3.07C128.09,49.06,124,18.85,137,13.56c3.69-1.49,9-.17,16.95,5.88,21.46,16.35-2.17,49.89-24,57.88C98.67,88.77,72.2,62.36,70.16,44Z" transform="translate(-13.44 -13)" style="fill: #ffd166;opacity: 0.15"/>
  <path d="M98.7,207.26c-6.55,24.28-29-7.53-49.06-24.89C52.7,207.59,34.69,227.89,19,212c-15.28-15.46,2.86-57.16,32.48-56.3C91.52,156.86,103.79,188.35,98.7,207.26Z" transform="translate(-13.44 -13)" style="fill: #06d6a0;opacity: 0.15"/>
  <path d="M231,45C248,34.77,256.7,72.9,245.9,92.86c22.54-9.73,36.51,8.08,32.76,23.67-3.41,14.12-35.45,26.42-52.13,10.22C202.62,103.53,218.31,52.63,231,45Z" transform="translate(-13.44 -13)" style="fill: #ef476f;opacity: 0.15"/>
  <path d="M517.82,130.84c-15.34-1-20.68,3.27-23.51,5.11-12.8,8.34-10.19,53.4,5.11,51.1,40.88-6.13,6.43-19.63,14.31-27.59,7.41-7.5,31.68-1,31.68-13.29C545.41,137,533.76,131.9,517.82,130.84Z" transform="translate(-13.44 -13)" style="fill: #ffd166;opacity: 0.15"/>
  <path d="M517.82,242.24c-4.08,2.06-7.19,6.07-9.2,10.22-7.65,15.77-5.13,40.55,7.15,45,8.2,3,21.8-2.73,24.53-12.26C546.43,263.75,526.24,238,517.82,242.24Z" transform="translate(-13.44 -13)" style="fill: #06d6a0;opacity: 0.15"/>
  <path d="M902.62,210c-6.54,24.27-29-7.53-49-24.9,3.06,25.22-15,45.52-30.66,29.64-15.28-15.46,2.86-57.16,32.47-56.3C895.45,159.59,907.72,191.07,902.62,210Z" transform="translate(-13.44 -13)" style="fill: #ef476f;opacity: 0.15"/>
  <path d="M771.29,143.66c-32.78,3.47-4.46-39,7.29-71.75-29.4,15.65-62.75,3.2-50.74-23.51,11.7-26,71.27-23.5,84.21,13.13C829.55,111.09,796.83,141,771.29,143.66Z" transform="translate(-13.44 -13)" style="fill: #51355a;opacity: 0.15"/>
  <path d="M392.64,274.76c8.86-3.78,23.8-13.87,22.72-26.51-1.21-14.13-21.95-25.67-38.53-21.52-20,5-31.2,32-23.16,44.2C360.38,281.08,380.08,280.13,392.64,274.76Z" transform="translate(-13.44 -13)" style="fill: #51355a;opacity: 0.15"/>
  <path d="M976.28,552.38c.93,8.86-3.18,19.4-15.45,20.34-17.18,1.33-18.44-19.4-22.34-24.66-3-4.1-6.34-3.9-10.2-3.12-9.9,2-5.95,32.23-19,37.44-3.7,1.47-9,.12-16.91-6-21.36-16.48,2.46-49.88,24.34-57.73C948,507.4,974.35,534,976.28,552.38Z" transform="translate(-13.44 -13)" style="fill: #ffd166;opacity: 0.15"/>
  <path d="M657.06,220.85C663.75,196.62,686,228.56,706,246c-2.91-25.23,15.23-45.43,30.83-29.45,15.2,15.55-3.19,57.14-32.8,56.1C663.94,271.3,651.85,239.74,657.06,220.85Z" transform="translate(-13.44 -13)" style="fill: #06d6a0;opacity: 0.15"/>
  <path d="M797,484.14c-17.08,10.14-25.56-28.05-14.64-47.94-22.6,9.6-36.47-8.29-32.62-23.87,3.49-14.1,35.61-26.2,52.19-9.91C825.68,425.79,809.69,476.59,797,484.14Z" transform="translate(-13.44 -13)" style="fill: #ef476f;opacity: 0.15"/>
  <path d="M515.42,484.42c-12.29-9.22-19.12-8.53-22.49-8.53-15.28,0-37.64,39.22-23.56,45.63,37.62,17.14,16.09-12.95,27-15.34,10.3-2.24,27.12,16.41,33.81,6.13C535.19,504.64,528.21,494,515.42,484.42Z" transform="translate(-13.44 -13)" style="fill: #ffd166;opacity: 0.15"/>
  <path d="M189,535.05c4.53-.58,8.8-3.31,12.09-6.55,12.48-12.3,18.41-36.49,8.32-44.77-6.75-5.53-21.46-4.72-27.22,3.34C169.18,505.2,179.58,536.24,189,535.05Z" transform="translate(-13.44 -13)" style="fill: #06d6a0;opacity: 0.15"/>
  <path d="M108.16,361.53c6.68-24.23,28.9,7.71,48.9,25.19-2.91-25.23,15.23-45.43,30.84-29.45,15.19,15.55-3.2,57.14-32.81,56.1C115,412,103,380.42,108.16,361.53Z" transform="translate(-13.44 -13)" style="fill: #ef476f;opacity: 0.15"/>
  <path d="M312.81,366.52c32.8-3.27,4.23,39-7.71,71.71,29.49-15.48,62.76-2.83,50.59,23.81-11.85,25.92-71.4,23.07-84.12-13.64C254.36,398.75,287.25,369.06,312.81,366.52Z" transform="translate(-13.44 -13)" style="fill: #51355a;opacity: 0.15"/>
  <path d="M904.35,372.38c-8.88,3.73-23.88,13.74-22.87,26.39,1.12,14.13,21.79,25.79,38.4,21.74,20-4.87,31.38-31.86,23.42-44.06C936.65,366.27,916.94,367.09,904.35,372.38Z" transform="translate(-13.44 -13)" style="fill: #51355a;opacity: 0.15"/>
  <path d="M34.12,696c-1-8.86,3.07-19.42,15.33-20.44,17.17-1.43,18.56,19.29,22.48,24.53,3.07,4.08,6.37,3.87,10.23,3.06,9.89-2.06,5.76-32.27,18.82-37.55,3.69-1.5,9-.18,17,5.87,21.46,16.35-2.17,49.9-24,57.88C62.63,740.8,36.16,714.39,34.12,696Z" transform="translate(-13.44 -13)" style="fill: #ffd166;opacity: 0.15"/>
  <path d="M553.05,947.85c3.28,24.93-29.62,4.16-54.85-4.16,12.51,22.11,3.66,47.78-16.93,39.14-20-8.41-19.31-53.88,8.37-64.46C527.08,904.07,550.5,928.43,553.05,947.85Z" transform="translate(-13.44 -13)" style="fill: #06d6a0;opacity: 0.15"/>
  <path d="M378.57,807.47c9.94-17.19,36,12,36.19,34.68,15-19.42,35.87-10.58,40.12,4.89,3.85,14-18.26,40.26-40.69,34.14C382,872.41,371.16,820.27,378.57,807.47Z" transform="translate(-13.44 -13)" style="fill: #ef476f;opacity: 0.15"/>
  <path d="M553.08,812.82c-15.34-1-20.68,3.27-23.51,5.11-12.8,8.34-10.19,53.4,5.11,51.1,40.88-6.13,6.43-19.63,14.31-27.59,7.41-7.5,31.68-1,31.68-13.29C580.67,819,569,813.88,553.08,812.82Z" transform="translate(-13.44 -13)" style="fill: #ffd166;opacity: 0.15"/>
  <path d="M462.53,623.55c-.87-4.48-3.88-8.57-7.32-11.64-13.09-11.66-37.61-16-45.22-5.38-5.08,7.08-3.31,21.72,5.11,26.94C434,645.21,464.33,632.82,462.53,623.55Z" transform="translate(-13.44 -13)" style="fill: #06d6a0;opacity: 0.15"/>
  <path d="M751.87,780.56c-6.54,24.28-29-7.53-49-24.89,3.06,25.22-15,45.52-30.66,29.64-15.28-15.46,2.86-57.16,32.47-56.3C744.7,730.16,757,761.65,751.87,780.56Z" transform="translate(-13.44 -13)" style="fill: #ef476f;opacity: 0.15"/>
  <path d="M526.23,661.79c-23.66-23,27.07-28.39,59.78-40.36-30.86-12.56-42.64-46.14-14.44-54,27.46-7.67,63.68,39.69,43.84,73.08C588.56,685.67,544.66,679.68,526.23,661.79Z" transform="translate(-13.44 -13)" style="fill: #51355a;opacity: 0.15"/>
  <path d="M159.35,832.77c8.85-3.78,23.79-13.88,22.71-26.52-1.21-14.13-21.95-25.66-38.53-21.52-20,5-31.19,32.06-23.15,44.2C127.09,839.08,146.78,838.14,159.35,832.77Z" transform="translate(-13.44 -13)" style="fill: #51355a;opacity: 0.15"/>
  <path d="M825.49,713.82c8.85-3.78,23.8-13.88,22.71-26.52-1.21-14.13-22-25.66-38.52-21.52-20,5-31.2,32.06-23.16,44.21C793.23,720.13,812.93,719.19,825.49,713.82Z" transform="translate(-13.44 -13)" style="fill: #51355a;opacity: 0.15"/>
  <path d="M812.22,870.55c15.33,1.12,20.7-3.14,23.54-5,12.84-8.26,10.51-53.33-4.81-51.13C790,820.34,824.4,834,816.48,842c-7.46,7.46-31.69.83-31.76,13.1C784.66,864.2,796.29,869.4,812.22,870.55Z" transform="translate(-13.44 -13)" style="fill: #ffd166;opacity: 0.15"/>
  <path d="M45.53,776.75c-4.07,2.06-7.18,6.07-9.19,10.22-7.65,15.77-5.13,40.55,7.15,45,8.2,2.95,21.8-2.74,24.53-12.27C74.15,798.25,54,772.48,45.53,776.75Z" transform="translate(-13.44 -13)" style="fill: #06d6a0;opacity: 0.15"/>
  <path d="M958.3,937.14c-.87-4.49-3.88-8.57-7.32-11.64-13.09-11.66-37.61-16-45.22-5.39-5.08,7.09-3.31,21.72,5.11,26.95C929.81,958.8,960.11,946.41,958.3,937.14Z" transform="translate(-13.44 -13)" style="fill: #06d6a0;opacity: 0.15"/>
</svg>
