<svg xmlns="http://www.w3.org/2000/svg" viewBox="0 0 256.03 255.47">
  <path d="M7.61,15.91c-.26-2.33.8-5.1,4-5.37,4.51-.37,4.87,5.07,5.9,6.44a2.27,2.27,0,0,0,2.69.81c2.59-.54,1.51-8.47,4.94-9.86,1-.39,2.36,0,4.45,1.54,5.63,4.29-.57,13.1-6.3,15.2C15.09,27.67,8.14,20.74,7.61,15.91Z" transform="translate(-7.19 -7.41)" style="fill: none;stroke: #000;stroke-miterlimit: 10;stroke-width: 0.75px"/>
  <path d="M51.34,57.06c-1.72,6.37-7.6-2-12.88-6.54.8,6.62-3.93,11.95-8,7.78s.75-15,8.53-14.78C49.45,43.83,52.68,52.09,51.34,57.06Z" transform="translate(-7.19 -7.41)" style="fill: none;stroke: #000;stroke-miterlimit: 10;stroke-width: 0.75px"/>
  <path d="M86,11.62C90.51,8.93,92.8,18.94,90,24.18c5.92-2.55,9.59,2.12,8.6,6.22-.89,3.71-9.31,6.93-13.68,2.68C78.6,27,82.72,13.62,86,11.62Z" transform="translate(-7.19 -7.41)" style="fill: none;stroke: #000;stroke-miterlimit: 10;stroke-width: 0.75px"/>
  <path d="M147.12,27.71c-4-.26-5.42.86-6.17,1.35-3.36,2.19-2.67,14,1.35,13.41,10.73-1.61,1.68-5.15,3.75-7.24s8.32-.27,8.32-3.49C154.37,29.34,151.31,28,147.12,27.71Z" transform="translate(-7.19 -7.41)" style="fill: none;stroke: #000;stroke-miterlimit: 10;stroke-width: 0.75px"/>
  <path d="M187.91,9.2a5.84,5.84,0,0,0-2.42,2.68c-2,4.14-1.34,10.65,1.88,11.81,2.15.78,5.72-.72,6.44-3.22C195.42,14.85,190.12,8.08,187.91,9.2Z" transform="translate(-7.19 -7.41)" style="fill: none;stroke: #000;stroke-miterlimit: 10;stroke-width: 0.75px"/>
  <path d="M200.39,65.13c-1.72,6.37-7.61-2-12.88-6.54.8,6.62-3.93,12-8,7.78s.75-15,8.52-14.78C198.5,51.9,201.72,60.16,200.39,65.13Z" transform="translate(-7.19 -7.41)" style="fill: none;stroke: #000;stroke-miterlimit: 10;stroke-width: 0.75px"/>
  <path d="M246.13,53.35c-8.6.91-1.17-10.23,1.91-18.84-7.71,4.11-16.47.84-13.31-6.17,3.07-6.82,18.7-6.17,22.1,3.45C261.43,44.8,252.84,52.64,246.13,53.35Z" transform="translate(-7.19 -7.41)" style="fill: none;stroke: #000;stroke-miterlimit: 10;stroke-width: 0.75px"/>
  <path d="M118,67.11c2.32-1,6.25-3.65,6-7-.31-3.71-5.76-6.74-10.11-5.65-5.24,1.31-8.19,8.41-6.08,11.6C109.55,68.76,114.72,68.52,118,67.11Z" transform="translate(-7.19 -7.41)" style="fill: none;stroke: #000;stroke-miterlimit: 10;stroke-width: 0.75px"/>
  <path d="M259.16,138.91c.25,2.33-.83,5.1-4.05,5.34-4.51.35-4.84-5.09-5.87-6.47a2.26,2.26,0,0,0-2.68-.82c-2.6.52-1.56,8.46-5,9.83-1,.39-2.36,0-4.44-1.57-5.6-4.33.65-13.09,6.39-15.16C251.75,127.11,258.66,134.08,259.16,138.91Z" transform="translate(-7.19 -7.41)" style="fill: none;stroke: #000;stroke-miterlimit: 10;stroke-width: 0.75px"/>
  <path d="M218.58,96.67c1.75-6.36,7.59,2,12.84,6.61-.77-6.62,4-11.92,8.09-7.73s-.84,15-8.61,14.73C220.38,109.91,217.21,101.63,218.58,96.67Z" transform="translate(-7.19 -7.41)" style="fill: none;stroke: #000;stroke-miterlimit: 10;stroke-width: 0.75px"/>
  <path d="M180.7,142.73c-4.48,2.66-6.71-7.36-3.84-12.58-5.93,2.52-9.58-2.18-8.56-6.27.91-3.7,9.34-6.88,13.7-2.6C188.24,127.41,184,140.75,180.7,142.73Z" transform="translate(-7.19 -7.41)" style="fill: none;stroke: #000;stroke-miterlimit: 10;stroke-width: 0.75px"/>
  <path d="M119.72,126.28c4,.29,5.43-.83,6.18-1.31,3.37-2.17,2.75-14-1.27-13.42-10.74,1.54-1.72,5.14-3.79,7.22s-8.32.22-8.34,3.44C112.48,124.61,115.53,126,119.72,126.28Z" transform="translate(-7.19 -7.41)" style="fill: none;stroke: #000;stroke-miterlimit: 10;stroke-width: 0.75px"/>
  <path d="M78.83,144.54a5.82,5.82,0,0,0,2.43-2.66c2-4.13,1.41-10.64-1.81-11.82-2.15-.79-5.73.68-6.46,3.18C71.35,138.85,76.61,145.65,78.83,144.54Z" transform="translate(-7.19 -7.41)" style="fill: none;stroke: #000;stroke-miterlimit: 10;stroke-width: 0.75px"/>
  <path d="M66.68,88.55c1.76-6.37,7.59,2,12.84,6.61-.77-6.63,4-11.93,8.09-7.74s-.84,15-8.61,14.73C68.49,101.79,65.31,93.5,66.68,88.55Z" transform="translate(-7.19 -7.41)" style="fill: none;stroke: #000;stroke-miterlimit: 10;stroke-width: 0.75px"/>
  <path d="M20.86,100.05c8.62-.86,1.12,10.24-2,18.82,7.74-4.06,16.48-.74,13.28,6.25C29,131.93,13.38,131.18,10,121.54,5.52,108.51,14.16,100.72,20.86,100.05Z" transform="translate(-7.19 -7.41)" style="fill: none;stroke: #000;stroke-miterlimit: 10;stroke-width: 0.75px"/>
  <path d="M149.06,87.06c-2.33,1-6.27,3.6-6,6.92.3,3.71,5.72,6.77,10.08,5.71,5.25-1.28,8.24-8.36,6.15-11.57C157.53,85.45,152.36,85.67,149.06,87.06Z" transform="translate(-7.19 -7.41)" style="fill: none;stroke: #000;stroke-miterlimit: 10;stroke-width: 0.75px"/>
  <path d="M11,242.16c-.26-2.32.8-5.09,4-5.36,4.51-.38,4.88,5.06,5.91,6.44a2.26,2.26,0,0,0,2.68.8c2.6-.54,1.51-8.47,4.94-9.86,1-.39,2.37,0,4.45,1.54,5.63,4.3-.57,13.1-6.3,15.2C18.44,253.93,11.5,247,11,242.16Z" transform="translate(-7.19 -7.41)" style="fill: none;stroke: #000;stroke-miterlimit: 10;stroke-width: 0.75px"/>
  <path d="M240.63,239.58c-1.72,6.37-7.6-2-12.88-6.54.8,6.62-3.93,12-8.05,7.78s.75-15,8.53-14.78C238.74,226.35,242,234.61,240.63,239.58Z" transform="translate(-7.19 -7.41)" style="fill: none;stroke: #000;stroke-miterlimit: 10;stroke-width: 0.75px"/>
  <path d="M30.64,163.82c4.47-2.68,6.75,7.33,3.92,12.57,5.91-2.56,9.58,2.12,8.6,6.21-.9,3.71-9.31,6.93-13.69,2.68C23.2,179.19,27.31,165.83,30.64,163.82Z" transform="translate(-7.19 -7.41)" style="fill: none;stroke: #000;stroke-miterlimit: 10;stroke-width: 0.75px"/>
  <path d="M91.72,179.92c-4-.27-5.43.85-6.17,1.34-3.36,2.19-2.68,14,1.34,13.41,10.73-1.61,1.69-5.15,3.76-7.24s8.31-.27,8.31-3.49C99,181.54,95.9,180.2,91.72,179.92Z" transform="translate(-7.19 -7.41)" style="fill: none;stroke: #000;stroke-miterlimit: 10;stroke-width: 0.75px"/>
  <path d="M132.5,161.4a5.84,5.84,0,0,0-2.41,2.69c-2,4.14-1.35,10.64,1.88,11.8,2.15.78,5.72-.72,6.43-3.22C140,167.05,134.71,160.28,132.5,161.4Z" transform="translate(-7.19 -7.41)" style="fill: none;stroke: #000;stroke-miterlimit: 10;stroke-width: 0.75px"/>
  <path d="M145,217.33c-1.72,6.37-7.6-2-12.88-6.54.81,6.62-3.92,12-8,7.78s.75-15,8.53-14.78C143.1,204.1,146.32,212.36,145,217.33Z" transform="translate(-7.19 -7.41)" style="fill: none;stroke: #000;stroke-miterlimit: 10;stroke-width: 0.75px"/>
  <path d="M190.73,205.55c-8.61.91-1.18-10.23,1.91-18.83-7.72,4.11-16.47.84-13.32-6.18,3.07-6.82,18.71-6.16,22.11,3.45C206,197,197.43,204.85,190.73,205.55Z" transform="translate(-7.19 -7.41)" style="fill: none;stroke: #000;stroke-miterlimit: 10;stroke-width: 0.75px"/>
  <path d="M62.61,219.31c2.33-1,6.25-3.64,6-7-.32-3.71-5.76-6.74-10.12-5.65-5.24,1.31-8.19,8.41-6.08,11.6C54.15,221,59.32,220.72,62.61,219.31Z" transform="translate(-7.19 -7.41)" style="fill: none;stroke: #000;stroke-miterlimit: 10;stroke-width: 0.75px"/>
  <path d="M256.87,192.83c2.33-1,6.25-3.64,6-7-.31-3.71-5.76-6.74-10.11-5.65-5.24,1.31-8.19,8.42-6.08,11.61C248.4,194.49,253.57,194.24,256.87,192.83Z" transform="translate(-7.19 -7.41)" style="fill: none;stroke: #000;stroke-miterlimit: 10;stroke-width: 0.75px"/>
  <path d="M167.61,258.9c4,.29,5.43-.82,6.18-1.3,3.37-2.17,2.75-14-1.27-13.43-10.74,1.55-1.72,5.15-3.8,7.23s-8.31.21-8.33,3.43C160.37,257.23,163.42,258.6,167.61,258.9Z" transform="translate(-7.19 -7.41)" style="fill: none;stroke: #000;stroke-miterlimit: 10;stroke-width: 0.75px"/>
  <path d="M95.76,239.84c5.06,1.27-.43,9.95-6.14,11.64,6,2.39,5.26,8.29,1.66,10.48-3.25,2-11.48-1.7-11.55-7.8C79.62,245.41,92,238.9,95.76,239.84Z" transform="translate(-7.19 -7.41)" style="fill: none;stroke: #000;stroke-miterlimit: 10;stroke-width: 0.75px"/>
</svg>
